<svg width="760" height="980" viewBox="0 0 760 980" fill="none" xmlns="http://www.w3.org/2000/svg">
  <ellipse cx="382" cy="936" rx="168" ry="28" fill="black" fill-opacity="0.12"/>
  <path d="M246 952C255 806.94 293.59 715 380 715C466.41 715 505 806.94 514 952H246Z" fill="#8E402C"/>
  <path d="M280 951C287.09 843.44 318.4 782 381 782C443.6 782 474.91 843.44 482 951H280Z" fill="#9B4933"/>
  <path d="M289 528C289 428.04 330.34 343 381 343C431.66 343 473 428.04 473 528V646H289V528Z" fill="#8E402C"/>
  <path d="M311 357C311 284.1 342.34 218 381 218C419.66 218 451 284.1 451 357C451 429.9 419.66 489 381 489C342.34 489 311 429.9 311 357Z" fill="#F4D4BF"/>
  <path d="M300 334C313.54 242.46 343.48 194 381 194C418.52 194 448.46 242.46 462 334L440 346C433.27 288.54 412.74 255 381 255C349.26 255 328.73 288.54 322 346L300 334Z" fill="#3C2A1F"/>
  <path d="M310 341C319.54 258.68 345.86 212 381 212C416.14 212 442.46 258.68 452 341C431.22 320.43 407.27 310 381 310C354.73 310 330.78 320.43 310 341Z" fill="#3A281E"/>
  <path d="M316 350C324.73 290.6 350.44 261 381 261C411.56 261 437.27 290.6 446 350C436.03 333.86 420.16 322 381 322C341.84 322 325.97 333.86 316 350Z" fill="#33231A"/>
  <path d="M321 411C321 363.5 348.76 325 381 325C413.24 325 441 363.5 441 411C441 447.22 420.2 478.22 390.59 491.19L409 629H353L371.41 491.19C341.8 478.22 321 447.22 321 411Z" fill="#522F24"/>
  <path d="M332 355C338.83 336.98 354.15 325 381 325C407.85 325 423.17 336.98 430 355C425.55 376.53 406.56 392 381 392C355.44 392 336.45 376.53 332 355Z" fill="#F7D9C5"/>
  <path d="M345 435C355.85 447.2 368.05 453.3 381 453.3C393.95 453.3 406.15 447.2 417 435" stroke="#D3997C" stroke-width="8" stroke-linecap="round"/>
  <path d="M335 329C345.79 319.77 360.68 315 381 315C401.32 315 416.21 319.77 427 329" stroke="#2C1F18" stroke-width="12" stroke-linecap="round"/>
  <path d="M302 571C325.5 628 348 674 372 718" stroke="#F4D4BF" stroke-width="44" stroke-linecap="round"/>
  <path d="M460 571C436.5 628 414 674 390 718" stroke="#F4D4BF" stroke-width="44" stroke-linecap="round"/>
  <path d="M257 593L335 757" stroke="#2A2019" stroke-width="30" stroke-linecap="round"/>
  <path d="M505 593L427 757" stroke="#2A2019" stroke-width="30" stroke-linecap="round"/>
  <path d="M256 587L304 567L334 633L286 654L256 587Z" fill="#E6E2DD"/>
  <path d="M500 588L456 566L427 634L471 656L500 588Z" fill="#D5D7DB"/>
  <path d="M256 588L300 568L286 654L256 588Z" fill="#BDC2CA"/>
  <path d="M500 588L456 566L471 656L500 588Z" fill="#C1C3C8"/>
  <path d="M348 519C359.95 526.1 370.96 529.65 381 529.65C391.04 529.65 402.05 526.1 414 519" stroke="#D3997C" stroke-width="10" stroke-linecap="round"/>
</svg>
