<svg width="260" height="320" viewBox="0 0 260 320" fill="none" xmlns="http://www.w3.org/2000/svg">
  <ellipse cx="129" cy="296" rx="72" ry="16" fill="black" fill-opacity="0.08"/>
  <rect x="91" y="18" width="77" height="48" rx="14" fill="#1D1714"/>
  <rect x="99" y="10" width="61" height="20" rx="8" fill="#2D241E"/>
  <rect x="66" y="46" width="128" height="222" rx="30" fill="#7F3C25"/>
  <rect x="73" y="53" width="114" height="208" rx="25" fill="#9D4F2E"/>
  <rect x="84" y="88" width="92" height="128" rx="12" fill="#15110F"/>
  <rect x="92" y="97" width="76" height="110" rx="8" fill="#201816"/>
  <path d="M99 112H161" stroke="#D8A45D" stroke-width="5" stroke-linecap="round"/>
  <path d="M104 128H156" stroke="#F0C27A" stroke-width="3.5" stroke-linecap="round"/>
  <path d="M104 143H156" stroke="#F0C27A" stroke-width="3.5" stroke-linecap="round"/>
  <path d="M104 158H156" stroke="#F0C27A" stroke-width="3.5" stroke-linecap="round"/>
  <path d="M104 173H150" stroke="#F0C27A" stroke-width="3.5" stroke-linecap="round"/>
  <path d="M99 229C109.68 219.67 120.01 215 130 215C139.99 215 150.32 219.67 161 229" stroke="#D8A45D" stroke-width="5" stroke-linecap="round"/>
</svg>
