<svg xmlns="http://www.w3.org/2000/svg" width="1714" height="979" fill="none"><path fill="#FFFEFE" d="M476.688 399.375q-2.313 5.813-2.688 11.687-.375 5.814-.562 10-.189 4.188-.313 8.688-.187 10.5-.187 19.125 0 35.375 2.624 43.375a19 19 0 0 0 1.126 2.75h-21.563q1.938-4.25 2.313-7.688.375-3.436.687-8.187.75-9.812.75-22.625t-.063-17.5q-.062-4.75-.187-9.25-.438-21.938-2.625-27.875l-.875-2.5zm-4.313-11.5q-1.125 1.875-2.75 3.125a5.9 5.9 0 0 1-3.687 1.25q-2.064 0-3.75-1.25-1.626-1.25-2.75-3.125-2.25-3.812-2.25-8.063 0-5.187 4.687-6.937 1.688-.625 4.125-.625 6.687 0 8.312 4.75.5 1.313.5 3 0 1.625-.624 3.812a15.5 15.5 0 0 1-1.813 4.063m71.187 84q1.688 2.437 1.688 5.875t-.5 5.938a28.4 28.4 0 0 1-1.25 4.75q-1.875 4.937-4.75 6.562H488.5q4.938-3.062 6.438-5.312 2.874-4.25 2.874-11a8205 8205 0 0 1-.062-30.063v-32.75q0-9.062-3-13.313-1.062-1.562-2.625-3.187h25.687q-3.687 5.313-4.187 10.937a63 63 0 0 0-.125 4.126v57.25q0 11.687 1.25 14 1.25 2.25 3 2.687 1.75.375 5.312.375 3.564 0 6.75-1.25 3.188-1.25 5.688-3.5 4.25-3.875 8.062-12.125m51-58.687q1.25-2.626 1.876-5.188.687-2.562.687-4.938 0-2.436-.937-3.75H615.5a22.7 22.7 0 0 0-2.438 4.563l-2.312 5.687q-5.688 13.75-16.562 20.688.687 20.876 8.937 39.375 7.438 16.938 17.5 25.375h-21.563q-8.687-9.25-12.312-33.625-1.376-8.937-2.312-21-.25-3.187-1.938-4.875-1.625-1.75-4.625-1.75t-4.187.562a3.96 3.96 0 0 0-1.813 1.688q-1.062 1.938-1.063 9 0 40.688 2 47.375.375 1.25.938 2.625h-20.938q2.001-4.75 2.313-7.938.375-3.186.625-6.812.5-7.375.5-19.812 0-14.938-.5-27.376l-.688-17.187q-.375-9.437-2.374-13.313a25 25 0 0 0-2-3.187h24.5q-2.5 3.25-3.25 6.063a38 38 0 0 0-1.126 9.124q0 4.5.188 6.5t.875 3.313q1.438 2.5 5.125 2.563 3.687 0 6.125-1.126a18.8 18.8 0 0 0 4.625-3.124 28 28 0 0 0 3.875-4.376 31.7 31.7 0 0 0 2.937-5.124M666.438 495q.812-3.937.812-6.25 0-2.375-.125-3.562a28 28 0 0 0-.25-2.5 49 49 0 0 0-.375-3q-.187-1.688-.375-3.876-1.437-14.937-10.187-24.562-3.876-4.25-8.376-6.438-4.5-2.25-7.437-2.25-2.875 0-4.437.376-3.5 10.5-3.5 21.937 0 10.125 1.062 15.125 1.687 7.5 5.188 15.062H619.75q1.5-3.75 1.5-15.75 0-12.061 1.812-22.5 1.813-10.5 4.688-18.687 2.937-8.187 6.5-14.313 3.625-6.187 7.188-10.75 3.624-4.625 6.812-7.874 3.188-3.313 5.312-5.813h19.688q-2.688 3.063-2.688 8.563 0 2.499.813 8.187l1.563 11.375q8.562 59 15.312 67.5zm-28.188-58.688a14.2 14.2 0 0 1 5.125-.937q2.688 0 4.813.375 2.187.375 4.312 1.25a17.8 17.8 0 0 1 7.625 5.562q-3.063-16.062-3.75-19.624L654.188 412l-3.563 4.25q-7.5 9-12.375 20.062m72.438-9.374q-.126 6.5-.126 14.812 0 11.813.438 27.062.438 15.188.688 17.313.249 2.062.624 3.625.625 2.562 1.938 5.25H697.5q1.875-3.813 2.25-7.438.438-3.687.688-7.312.5-7.375.5-19.812 0-15.063-.5-27.5l-.688-17.188q-.375-9.5-3-13.5-1.062-1.5-2.625-2.875h19.437a385 385 0 0 0 7.813 16.875l8.5 16.625 18.25 33.563q.063-3.938.063-8.438v-9.75q0-31.25-3.813-45.125-.75-2.562-1.625-3.75l18.812-.063q-3.124 6.25-3.937 35.188-.125 4.5-.125 8.625l.062 5.25v25.5q0 16.187.25 21.125h-10.124l-18.126-33.75zm149.874-13.75q1.25-2.626 1.876-5.188.687-2.562.687-4.938 0-2.436-.937-3.75H881.5a22.7 22.7 0 0 0-2.438 4.563l-2.312 5.687q-5.688 13.75-16.562 20.688.687 20.876 8.937 39.375 7.438 16.938 17.5 25.375h-21.563q-8.686-9.25-12.312-33.625-1.376-8.937-2.312-21-.25-3.187-1.938-4.875-1.625-1.75-4.625-1.75t-4.187.562a3.96 3.96 0 0 0-1.813 1.688q-1.062 1.938-1.063 9 0 40.688 2 47.375.375 1.25.938 2.625h-20.938q2.001-4.75 2.313-7.938.375-3.186.625-6.812.5-7.375.5-19.812 0-14.938-.5-27.376l-.688-17.187q-.375-9.437-2.374-13.313a25 25 0 0 0-2-3.187h24.5q-2.5 3.25-3.25 6.063a38 38 0 0 0-1.126 9.124q0 4.5.188 6.5t.875 3.313q1.438 2.5 5.125 2.563 3.687 0 6.125-1.126a18.8 18.8 0 0 0 4.625-3.124 28 28 0 0 0 3.875-4.376 31.7 31.7 0 0 0 2.937-5.124M932.438 495q.812-3.937.812-6.25 0-2.375-.125-3.562a28 28 0 0 0-.25-2.5 49 49 0 0 0-.375-3q-.187-1.688-.375-3.876-1.437-14.937-10.187-24.562-3.876-4.25-8.376-6.438-4.5-2.25-7.437-2.25-2.876 0-4.437.376-3.5 10.5-3.5 21.937 0 10.125 1.062 15.125 1.687 7.5 5.188 15.062H885.75q1.5-3.75 1.5-15.75 0-12.061 1.812-22.5 1.813-10.5 4.688-18.687 2.937-8.187 6.5-14.313 3.625-6.187 7.188-10.75 3.624-4.625 6.812-7.874 3.188-3.313 5.312-5.813h19.688q-2.688 3.063-2.688 8.563 0 2.499.813 8.187l1.563 11.375q8.562 59 15.312 67.5zm-28.188-58.688a14.2 14.2 0 0 1 5.125-.937q2.688 0 4.813.375 2.187.375 4.312 1.25a17.8 17.8 0 0 1 7.625 5.562q-3.063-16.062-3.75-19.624L920.188 412l-3.563 4.25q-7.5 9-12.375 20.062m71.438 34.626.062-13.063v-7.125q0-5.625-4.625-16-3.562-7.812-4.813-10.312l-2.062-4.126q-8.062-16.875-14.125-20.937h25.187q-.437 1.25-.437 3.187 0 1.938.313 4.126a61 61 0 0 0 .812 4.374q.938 4.313 2.438 7.938l3 7.25q1.562 3.625 3.874 7.375 2.938-4.437 4.688-8.687l2.375-5.876q3.563-9.061 3.563-17.25 0-1.375-.188-2.437h17.19c-2.29 2.417-4.69 5.937-7.19 10.563q-3.75 6.937-5.25 10.062l-3.188 6.938q-6.5 14.375-6.5 23V478.5q0 6.375 1.5 9.188 1.5 2.812 3.188 4.374 1.688 1.563 4.062 2.938h-31.937q8.063-4.125 8.063-15.062zm54.502-49.876a677 677 0 0 0-.25 18.876c0 8.874.14 18.437.44 28.687.29 10.25.5 16.083.62 17.5a36 36 0 0 0 .62 3.625c.46 1.917 1.21 3.667 2.26 5.25h-17.44c1.58-2.25 2.52-4.667 2.81-7.25q.495-3.875.75-7.5c.33-4.917.5-11.521.5-19.812 0-10.042-.17-19.209-.5-27.5l-.69-17.188q-.375-9.5-3.06-13.5c-.67-1-1.52-1.958-2.56-2.875h24.43c1.63 7.125 3.65 14.687 6.07 22.687l11.37 36.313 17.44-59h24.38c-2.05 1.792-3.38 3.625-4 5.5-.92 2.875-1.44 6.208-1.57 10l-.43 11.063c-.55 12.958-.82 24.458-.82 34.5 0 16.833.77 27.52 2.32 32.062.29.833.66 1.667 1.12 2.5h-19.69c1.13-2.208 1.75-4.583 1.88-7.125.16-2.583.31-6.125.43-10.625.5-14.792.76-25.562.76-32.312 0-11.126-.11-19.396-.32-24.813l-23 74.875-12.18-38.375zm122 73.938q.81-3.937.81-6.25 0-2.375-.12-3.562c-.05-.792-.13-1.626-.26-2.5-.08-.917-.2-1.917-.37-3-.13-1.126-.25-2.417-.37-3.876-.96-9.958-4.36-18.145-10.19-24.562-2.59-2.833-5.38-4.979-8.38-6.438-3-1.5-5.48-2.25-7.43-2.25q-2.88 0-4.44.376c-2.34 7-3.5 14.312-3.5 21.937 0 6.75.35 11.792 1.06 15.125q1.68 7.5 5.19 15.062h-18.69q1.5-3.75 1.5-15.75c0-8.041.6-15.541 1.81-22.5 1.21-7 2.77-13.229 4.69-18.687 1.96-5.458 4.12-10.229 6.5-14.313 2.42-4.124 4.81-7.708 7.19-10.75 2.41-3.083 4.69-5.708 6.81-7.874 2.12-2.209 3.9-4.146 5.31-5.813H1159c-1.79 2.042-2.69 4.896-2.69 8.563q0 2.499.81 8.187l1.57 11.375c5.71 39.333 10.81 61.833 15.31 67.5zM1124 436.312c1.62-.624 3.33-.937 5.12-.937 1.8 0 3.4.125 4.82.375 1.46.25 2.89.667 4.31 1.25 3.04 1.167 5.58 3.021 7.63 5.562-2.05-10.708-3.3-17.25-3.76-19.624L1139.94 412l-3.56 4.25c-5 6-9.13 12.688-12.38 20.062m100.94-23.124c.83-1.75 1.46-3.48 1.87-5.188q.69-2.562.69-4.938c0-1.624-.31-2.874-.94-3.75h19.32a22.3 22.3 0 0 0-2.44 4.563l-2.32 5.687q-5.685 13.75-16.56 20.688.69 20.876 8.94 39.375c4.96 11.292 10.79 19.75 17.5 25.375h-21.56c-5.79-6.167-9.9-17.375-12.32-33.625q-1.365-8.937-2.31-21c-.16-2.125-.81-3.75-1.93-4.875-1.09-1.167-2.63-1.75-4.63-1.75s-3.4.188-4.19.562c-.79.376-1.39.938-1.81 1.688-.71 1.292-1.06 4.292-1.06 9 0 27.125.66 42.917 2 47.375q.375 1.25.93 2.625h-20.93q1.995-4.75 2.31-7.938c.25-2.124.46-4.395.62-6.812.34-4.917.5-11.521.5-19.812 0-9.959-.16-19.084-.5-27.376l-.68-17.187c-.25-6.292-1.04-10.729-2.38-13.313a25 25 0 0 0-2-3.187h24.5c-1.66 2.167-2.75 4.187-3.25 6.063a38 38 0 0 0-1.12 9.124c0 3 .06 5.167.19 6.5q.18 2 .87 3.313 1.44 2.5 5.13 2.563c2.45 0 4.5-.376 6.12-1.126a18.6 18.6 0 0 0 4.62-3.124 28 28 0 0 0 3.88-4.376 31.4 31.4 0 0 0 2.94-5.124m-538.692 176.02q-.48 0-.48-1.056 0-.96.576-2.688.96-2.784 3.36-7.488a435 435 0 0 1 5.76-10.464q3.36-5.76 7.104-11.904a1030 1030 0 0 1 7.488-11.808q3.744-5.76 6.816-10.368 3.168-4.608 5.184-7.296 2.112-2.688 2.592-2.688h.864q.864 0 .864.576t-1.056 1.92q-4.032 5.28-8.544 11.904a497 497 0 0 0-9.024 13.536 577 577 0 0 0-8.448 13.824q-4.032 6.816-7.2 12.768t-4.992 10.176q-.48 1.056-.864 1.056m-40.512 11.616q-.48 0-.48-1.056 0-.96.576-2.688.96-2.784 3.456-7.68 2.592-4.8 6.144-10.752 3.552-6.048 7.392-12.384l-4.224.576a72 72 0 0 0-3.936.672q-12.384 2.112-18.144 5.952-5.664 3.744-5.664 6.912 0 1.92 1.824 3.36.192.192.192.288t-.384.096q-.576 0-.864-.288-4.128-3.072-4.128-7.488 0-3.168 2.4-6.336 2.496-3.168 7.68-5.76 5.28-2.688 13.536-4.128a86 86 0 0 1 8.16-1.152q4.224-.384 8.352-.288a460 460 0 0 1 6.528-9.984q3.168-4.704 5.664-8.352 2.592-3.744 4.224-5.856 1.728-2.112 2.112-2.112h.864q.864 0 .864.576t-1.056 1.92a397 397 0 0 0-7.968 11.136 442 442 0 0 0-8.64 12.768q4.512.288 8.928 1.152 1.728.384 4.032 1.056a30 30 0 0 1 4.512 1.728q2.304.96 3.936 2.496t1.92 3.648q.096.672-.192.672-.192-.096-.384-.48-.384-1.152-2.592-1.824a24.5 24.5 0 0 0-4.512-.96q-2.304-.384-3.456-.48a65 65 0 0 0-6.24-.288q-5.28 0-10.656.576a500 500 0 0 0-7.872 12.864q-3.744 6.24-6.624 11.616-2.784 5.376-4.416 9.216-.48 1.056-.864 1.056m62.45-13.728q-2.976 0-4.608-1.824-1.632-1.92-1.632-4.896 0-2.784 1.44-6.144 1.536-3.36 4.8-6.816 3.36-3.648 8.352-5.856 4.992-2.304 9.504-2.304 3.648 0 6.24 1.632 2.592 1.536 3.456 3.936 1.056 0 2.592.576 1.632.576 1.632 2.112 0 1.056-1.056 2.4-.672.96-2.4 2.88a41 41 0 0 0-3.072 4.128q-1.152 1.728-1.824 3.264-.672 1.44-.672 2.496 0 1.44 1.44 1.44 1.632 0 4.896-1.824a53 53 0 0 0 6.816-4.608 242 242 0 0 0 5.088-4.128q.48-.384.672-.384.384 0 .384.48 0 .576-.48 1.056-.864.768-3.36 2.88t-5.76 4.416q-3.168 2.304-6.24 3.744-1.536.672-2.88 1.056-1.248.288-2.304.288-2.592 0-3.936-1.44-1.344-1.536-1.344-3.936 0-.96.288-2.016t.672-2.112l.672-1.632q-2.496 3.072-4.992 5.184a48 48 0 0 1-4.992 3.552q-2.112 1.248-4.032 1.824-1.824.576-3.36.576m2.976-2.496q1.728 0 4.992-2.016 3.264-2.112 7.584-6.432.576-.576 2.112-2.016a160 160 0 0 0 3.456-3.36q1.824-1.92 3.072-3.744 1.344-1.92 1.344-3.168 0-1.824-3.168-1.824-2.784 0-6.72 2.208-3.84 2.112-7.392 6.336-3.648 4.32-5.376 7.488-1.632 3.072-1.632 4.704 0 1.824 1.728 1.824m58.809-26.976q-1.344 0-2.016-.864t-.672-1.824q0-1.92 1.824-3.744 1.824-1.92 3.84-1.92 1.344 0 2.016.864t.672 1.824q0 2.016-1.824 3.84-1.728 1.824-3.84 1.824m-14.688 29.472q-3.936 0-5.376-1.632-1.344-1.728-1.345-3.84 0-1.728.577-3.264.576-1.632.96-2.304a24 24 0 0 1 1.536-2.208q1.056-1.248 2.304-2.688a219 219 0 0 0-3.648 3.168q-1.633 1.536-2.689 2.304-.288.288-.576.288-.384 0-.384-.48 0-.768 1.056-1.536a54 54 0 0 0 4.801-4.608q2.4-2.496 4.512-4.608 2.112-2.208 3.744-3.072 1.728-.96 2.784-1.248t1.728-.288q1.056 0 1.536.384.48.288.192.672-1.632 1.632-3.264 4.224a59 59 0 0 0-2.88 5.28 49 49 0 0 0-2.208 5.28q-.768 2.496-.768 4.224 0 2.4 1.92 2.4 1.824 0 4.704-1.632 2.976-1.728 6.144-4.32a133 133 0 0 0 6.048-5.088q.384-.384.672-.384.48 0 .48.48.096.48-.192.672-3.168 2.976-7.2 6.24-3.936 3.168-7.968 5.376-3.936 2.208-7.2 2.208m34.117 0q-4.128 0-5.568-1.536-1.44-1.632-1.44-3.552 0-2.496 1.92-5.28a808 808 0 0 1 2.592-3.648q1.44-2.112 2.688-3.936a87 87 0 0 0 1.728-2.592q.672-.96.768-1.248.192-.384.192-.768 0-.576-.768-1.056-.672-.576-2.304-.576-.48 0-.864.096h-.672q-.768 0-.864-.096l-.288.384a115 115 0 0 1-5.76 7.008 56.6 56.6 0 0 1-6.72 6.24q-.384.288-.576.288-.384 0-.384-.384 0-.768 1.152-1.728a68 68 0 0 0 5.856-5.568 56 56 0 0 0 5.184-6.624q-.864-.576-.864-2.304 0-2.592 1.632-5.568 1.152-2.016 2.496-2.976 1.44-1.056 2.496-1.056 2.016 0 2.016 2.4 0 1.536-1.152 3.84-.48 1.152-1.92 2.976-1.344 1.728-2.688 2.496 2.016-.672 5.088-.864 3.168-.288 5.28-.288 1.248 0 3.072.768 1.824.672 1.824 2.496 0 1.248-1.152 2.688-.288.384-1.536 1.824t-2.784 3.456a74 74 0 0 0-2.688 4.032q-1.248 1.824-2.016 3.36-.672 1.536-.672 2.592 0 1.536 1.728 1.536 2.016 0 5.376-1.92t7.2-4.896a78 78 0 0 0 7.2-6.336q.384-.384.672-.384.384 0 .384.48 0 .576-.48 1.056a137 137 0 0 1-7.488 6.912q-4.032 3.456-8.448 5.856-4.32 2.4-8.448 2.4m64.985 3.744q-5.952 0-10.464-1.248t-6.432-2.784q-4.8-3.744-4.8-8.64 0-4.128 3.552-8.256 3.648-4.224 11.04-7.68 7.392-3.552 18.624-5.568 4.8-.864 9.696-1.344 4.992-.48 9.984-.48 4.224 0 8.448.384 4.32.384 8.448 1.248 1.344.288 3.072.768 1.728.384 3.552.96a1198 1198 0 0 0 15.552-16.224q7.584-8.064 14.688-13.632 4.992-3.936 9.312-5.376t7.68-1.44q3.936 0 6.432 1.248 2.592 1.152 3.36 1.92.288.288 0 .576t-.576 0q-.48-.576-2.304-1.248t-4.704-.672q-3.552 0-8.352 1.632t-10.656 6.144q-7.2 5.664-14.304 13.056a1508 1508 0 0 1-14.304 14.688 25.8 25.8 0 0 1 6.816 3.648q3.168 2.304 3.648 5.664v.384q0 .384-.192.384-.288 0-.576-.576-.384-1.056-2.208-1.824-1.728-.768-4.032-1.248a64 64 0 0 0-4.416-.768 78 78 0 0 0-3.168-.384l-1.056-.096a190 190 0 0 1-16.512 14.208q-8.448 6.432-17.952 9.696-4.512 1.536-8.832 2.208-4.224.672-8.064.672m74.208 4.704q-4.32-3.072-6.336-7.392t-2.016-9.312 1.728-9.984q1.728-5.088 4.992-10.56a131 131 0 0 1 7.296-10.656q3.936-5.28 7.584-9.6a913 913 0 0 1 6.24-7.296q2.592-2.88 3.072-3.552.576-.768.864-.768.384 0 .576.672.192.576.192 1.344 0 1.536-.48 2.208-2.496 3.168-5.952 8.064t-7.008 10.944a161 161 0 0 0-6.624 12.288q-3.072 6.336-4.992 12.384-1.824 6.048-1.824 11.04 0 2.88.768 5.28a10.9 10.9 0 0 0 2.496 4.224q.096.096.096.288t-.192.384-.48 0m-73.92-6.336q3.552 0 7.68-.672 4.128-.576 8.544-1.92 8.256-2.592 16.416-8.832t16.032-13.92a33 33 0 0 0-2.496-.096h-2.592q-6.72 0-14.016.672-7.2.672-13.728 1.92-10.56 1.824-17.28 4.608-6.624 2.688-9.792 5.664-3.072 2.976-3.072 5.664 0 2.592 2.592 4.512 1.344.96 4.416 1.632 3.072.768 7.296.768m93.915-2.112q-4.128 0-5.568-1.536-1.44-1.632-1.44-3.552 0-2.496 1.92-5.28a808 808 0 0 1 2.592-3.648q1.44-2.112 2.688-3.936a87 87 0 0 0 1.728-2.592q.672-.96.768-1.248.192-.384.192-.768 0-.576-.768-1.056-.672-.576-2.304-.576-.48 0-.864.096h-.673q-.767 0-.863-.096l-.288.384a115 115 0 0 1-5.76 7.008 56.6 56.6 0 0 1-6.721 6.24q-.384.288-.576.288-.384 0-.384-.384 0-.768 1.152-1.728a67 67 0 0 0 5.857-5.568 56 56 0 0 0 5.184-6.624q-.864-.576-.864-2.304 0-2.592 1.632-5.568 1.152-2.016 2.496-2.976 1.44-1.056 2.496-1.056 2.016 0 2.016 2.4 0 1.536-1.152 3.84-.48 1.152-1.92 2.976-1.344 1.728-2.688 2.496 2.016-.672 5.088-.864 3.168-.288 5.28-.288 1.248 0 3.072.768 1.824.672 1.824 2.496 0 1.248-1.152 2.688-.288.384-1.536 1.824t-2.784 3.456a74 74 0 0 0-2.688 4.032q-1.248 1.824-2.016 3.36-.672 1.536-.672 2.592 0 1.536 1.728 1.536 2.016 0 5.376-1.92t7.2-4.896a78 78 0 0 0 7.2-6.336q.384-.384.672-.384.384 0 .384.48 0 .576-.48 1.056a137 137 0 0 1-7.488 6.912q-4.032 3.456-8.448 5.856-4.32 2.4-8.448 2.4m26.623 1.536q-3.072 0-4.704-1.824t-1.632-5.088q0-3.072 1.632-7.2l.192-.48-1.728 1.632q-.384.384-.864.384t-.48-.384q0-.48.672-1.152a303 303 0 0 0 5.088-4.608q2.688-2.496 4.512-4.704a3.6 3.6 0 0 1-1.44.288q-.768 0-1.152-.384-.672-.48-.672-1.728 0-1.056.96-2.208 1.056-1.152 4.224-2.016.672-.192 1.344-.288.768-.096 1.44-.192 3.072-4.32 5.376-7.968 2.304-3.744 3.648-4.992.576-.672 2.016-1.152a25 25 0 0 1 3.168-.768q1.728-.288 2.688-.288c2.111 0 3.171.192 3.171.576q0 .384-1.44 1.824-2.404 2.304-5.667 5.76a199 199 0 0 0-6.528 7.296q2.784.384 5.088 1.44 2.4 1.056 3.456 2.688.384.48.384 1.152 0 .768-.48.768-.384 0-.864-.48-2.016-2.016-6.72-2.016a22 22 0 0 0-2.016.096q-.96.096-2.016.288a113 113 0 0 0-5.952 8.448q-2.688 4.224-3.84 7.872-.576 1.728-.576 3.168t.672 2.4q.672.864 2.016.864.864 0 2.112-.48 1.824-.672 4.224-2.208 2.4-1.632 4.8-3.648 2.496-2.016 4.608-3.936a143 143 0 0 0 5.28-4.8q.288-.288.48-.288c.256 0 .389.192.389.576 0 .448-.197.864-.581 1.248q-.96.96-2.976 2.88a165 165 0 0 1-4.512 4.32 62 62 0 0 1-5.376 4.416q-2.88 2.112-5.856 3.456-2.88 1.44-5.568 1.44M1017 557.624c-.89 0-1.57-.288-2.01-.864-.45-.576-.68-1.184-.68-1.824q0-1.92 1.83-3.744 1.815-1.92 3.84-1.92c.89 0 1.57.288 2.01.864.45.576.68 1.184.68 1.824q0 2.016-1.83 3.84-1.725 1.824-3.84 1.824m-14.69 29.472q-3.931 0-5.372-1.632-1.344-1.728-1.344-3.84 0-1.728.576-3.264.576-1.632.96-2.304a24 24 0 0 1 1.536-2.208q1.058-1.248 2.304-2.688a219 219 0 0 0-3.648 3.168q-1.632 1.536-2.688 2.304-.288.288-.576.288-.384 0-.384-.48 0-.768 1.056-1.536a54 54 0 0 0 4.8-4.608c1.6-1.664 3.1-3.2 4.51-4.608q2.115-2.208 3.75-3.072c1.15-.64 2.08-1.056 2.78-1.248s1.28-.288 1.73-.288q1.05 0 1.53.384c.32.192.39.416.2.672q-1.635 1.632-3.27 4.224a61 61 0 0 0-2.88 5.28c-.89 1.856-1.63 3.616-2.21 5.28-.51 1.664-.76 3.072-.76 4.224q0 2.4 1.92 2.4c1.21 0 2.78-.544 4.7-1.632 1.98-1.152 4.03-2.592 6.14-4.32 2.18-1.728 4.2-3.424 6.05-5.088.26-.256.48-.384.67-.384q.48 0 .48.48c.07.32 0 .544-.19.672q-3.165 2.976-7.2 6.24c-2.62 2.112-5.28 3.904-7.97 5.376q-3.93 2.208-7.2 2.208m25.19.96q-3.84 0-6.72-1.44-2.97-1.536-4.32-5.568c-.06-.256.04-.416.29-.48q.285-.096.39.384.96 2.112 2.49 2.976a6.77 6.77 0 0 0 3.36.864c2.05 0 3.84-.608 5.38-1.824 1.6-1.216 3.01-2.752 4.22-4.608a47 47 0 0 0 3.36-5.664q1.545-2.976 2.88-5.088a32.7 32.7 0 0 1 4.99-6.432c1.99-1.92 3.78-3.104 5.38-3.552q-.57-.288-1.44-.288-2.4 0-5.28 1.44c-1.92.96-3.87 2.208-5.86 3.744-1.92 1.536-3.8 3.168-5.66 4.896a405 405 0 0 0-4.99 4.704 399 399 0 0 1-3.55 3.36c-.52.448-.9.672-1.16.672-.25 0-.38-.128-.38-.384q0-.576.48-1.056c1.92-1.664 3.9-3.52 5.95-5.568a140 140 0 0 1 6.24-6.048c2.11-1.984 4.26-3.616 6.43-4.896q3.27-1.92 6.63-1.92h.67c.26 0 .51.032.77.096q1.05.096 1.92.576.96.48.57.672-2.205.96-3.45 3.84t-2.31 6.72c-.7 2.56-1.56 5.152-2.59 7.776a21.3 21.3 0 0 1-4.22 7.008c.89-.32 2.3-1.056 4.22-2.208s4.03-2.56 6.34-4.224a54 54 0 0 0 6.43-5.664c.26-.256.51-.384.77-.384q.48 0 .48.48 0 .384-.39.768a241 241 0 0 1-5.76 5.376 65 65 0 0 1-6.91 5.28 41.7 41.7 0 0 1-7.58 4.128c-2.63 1.024-5.31 1.536-8.07 1.536m30.3.576c-2.04 0-3.61-.608-4.7-1.824s-1.63-2.912-1.63-5.088c0-2.048.54-4.448 1.63-7.2l.19-.48-1.73 1.632c-.25.256-.54.384-.86.384q-.48 0-.48-.384c0-.32.22-.704.67-1.152 1.67-1.472 3.36-3.008 5.09-4.608 1.79-1.664 3.3-3.232 4.51-4.704a3.6 3.6 0 0 1-1.44.288c-.51 0-.89-.128-1.15-.384-.45-.32-.67-.896-.67-1.728q0-1.056.96-2.208c.7-.768 2.11-1.44 4.22-2.016q.675-.192 1.35-.288.765-.096 1.44-.192c2.04-2.88 3.84-5.536 5.37-7.968 1.54-2.496 2.75-4.16 3.65-4.992.38-.448 1.06-.832 2.02-1.152 1.02-.32 2.08-.576 3.16-.768 1.16-.192 2.05-.288 2.69-.288 2.11 0 3.17.192 3.17.576q0 .384-1.44 1.824c-1.6 1.536-3.49 3.456-5.66 5.76-2.12 2.24-4.29 4.672-6.53 7.296 1.85.256 3.55.736 5.09 1.44q2.4 1.056 3.45 2.688.39.48.39 1.152 0 .768-.48.768-.39 0-.87-.48-2.01-2.016-6.72-2.016-.96 0-2.01.096c-.64.064-1.32.16-2.02.288a112 112 0 0 0-5.95 8.448q-2.685 4.224-3.84 7.872c-.39 1.152-.58 2.208-.58 3.168s.23 1.76.67 2.4c.45.576 1.12.864 2.02.864.58 0 1.28-.16 2.11-.48q1.83-.672 4.23-2.208 2.4-1.632 4.8-3.648a101 101 0 0 0 4.6-3.936c1.48-1.28 2.69-2.368 3.65-3.264s1.51-1.408 1.63-1.536q.3-.288.48-.288.39 0 .39.576c0 .448-.19.864-.58 1.248q-.96.96-2.97 2.88c-1.28 1.28-2.79 2.72-4.52 4.32a61 61 0 0 1-5.37 4.416c-1.92 1.408-3.87 2.56-5.86 3.456-1.92.96-3.77 1.44-5.57 1.44m25-1.632q-1.26 0-1.92-.672c-.71-.576-1.06-1.376-1.06-2.4 0-1.472.58-2.816 1.73-4.032 1.34-1.536 2.88-2.304 4.61-2.304q1.05 0 1.92.576 1.05.864 1.05 2.4c0 1.408-.57 2.752-1.73 4.032-1.4 1.6-2.94 2.4-4.6 2.4"/></svg>