<svg width="1200" height="630" viewBox="0 0 1200 630" fill="none" xmlns="http://www.w3.org/2000/svg">
  <rect width="1200" height="630" fill="#F4EEE5"/>
  <circle cx="176" cy="142" r="154" fill="#E4D0BB"/>
  <circle cx="1009" cy="543" r="151" fill="#DCC4AA"/>
  <rect x="120" y="92" width="255" height="446" rx="36" fill="#1E1814"/>
  <rect x="473" y="58" width="255" height="514" rx="36" fill="#1C1715"/>
  <rect x="825" y="110" width="255" height="418" rx="36" fill="#201915"/>
  <rect x="136" y="108" width="223" height="414" rx="28" fill="#AD9073"/>
  <rect x="489" y="74" width="223" height="482" rx="28" fill="#8A837B"/>
  <rect x="841" y="126" width="223" height="386" rx="28" fill="#B99063"/>
  <circle cx="248" cy="189" r="42" fill="#F5E9DD"/>
  <circle cx="600" cy="165" r="42" fill="#F4E7DA"/>
  <circle cx="952" cy="208" r="42" fill="#FBF0E5"/>
  <rect x="161" y="323" width="173" height="52" rx="18" fill="#FBF5EE"/>
  <rect x="161" y="391" width="173" height="52" rx="18" fill="#FBF5EE"/>
  <rect x="514" y="347" width="173" height="52" rx="18" fill="#FBF5EE"/>
  <rect x="514" y="415" width="173" height="52" rx="18" fill="#FBF5EE"/>
  <rect x="866" y="302" width="173" height="52" rx="18" fill="#FBF5EE"/>
  <rect x="866" y="370" width="173" height="52" rx="18" fill="#FBF5EE"/>
  <text x="90" y="68" fill="#1F1813" font-family="Georgia, serif" font-size="38" letter-spacing="1">ilkancom</text>
</svg>
